# Exported from Wings 3D 0.98.26
mtllib HexagonalRosette.mtl
o cylinder1_sep6
#14 vertices, 18 faces
v 2.23205 -0.133975 0.00000e+0
v 1.98205 -0.566987 0.866025
v 1.48205 -1.43301 0.866025
v 1.23205 -1.86603 1.22461e-16
v 1.48205 -1.43301 -0.866025
v 1.98205 -0.566987 -0.866025
v 5.69615 -2.13397 0.00000e+0
v 5.44615 -2.56699 0.866025
v 4.94615 -3.43301 0.866025
v 4.69615 -3.86603 1.22461e-16
v 4.94615 -3.43301 -0.866025
v 5.44615 -2.56699 -0.866025
v -1.23248e-16 2.11755e-17 1.90639e-18
v 6.92820 -4.00000 -2.22045e-16
vn 0.284752 0.958601 -2.27555e-16
vn 4.16150e-2 0.537475 0.842252
vn -0.444660 -0.304777 0.842252
vn -0.687797 -0.725903 2.27555e-16
vn -0.444660 -0.304777 -0.842252
vn 4.16150e-2 0.537475 -0.842252
vn 0.687797 0.725903 -3.25079e-17
vn 0.444660 0.304777 0.842252
vn -4.16150e-2 -0.537475 0.842252
vn -0.284752 -0.958601 5.03872e-16
vn -4.16150e-2 -0.537475 -0.842252
vn 0.444660 0.304777 -0.842252
vn -0.866025 0.500000 -1.39700e-16
vn 0.866025 -0.500000 5.58800e-16
g cylinder1_sep6_default
usemtl default
f 1//1 6//6 13//13
f 2//2 1//1 13//13
f 3//3 2//2 13//13
f 4//4 3//3 13//13
f 5//5 4//4 13//13
f 6//6 5//5 13//13
f 7//7 1//1 2//2 8//8
f 7//7 8//8 14//14
f 8//8 2//2 3//3 9//9
f 8//8 9//9 14//14
f 9//9 3//3 4//4 10//10
f 9//9 10//10 14//14
f 10//10 4//4 5//5 11//11
f 10//10 11//11 14//14
f 11//11 5//5 6//6 12//12
f 11//11 12//12 14//14
f 12//12 6//6 1//1 7//7
f 12//12 7//7 14//14
o cylinder1_sep5
#14 vertices, 18 faces
v 1.00000 -2.00000 0.00000e+0
v 0.500000 -2.00000 0.866025
v -0.500000 -2.00000 0.866025
v -1.00000 -2.00000 1.22461e-16
v -0.500000 -2.00000 -0.866025
v 0.500000 -2.00000 -0.866025
v 1.00000 -6.00000 0.00000e+0
v 0.500000 -6.00000 0.866025
v -0.500000 -6.00000 0.866025
v -1.00000 -6.00000 1.22461e-16
v -0.500000 -6.00000 -0.866025
v 0.500000 -6.00000 -0.866025
v -1.11022e-16 0.00000e+0 1.90639e-18
v -1.29526e-16 -8.00000 -2.22045e-16
vn 0.972549 0.232698 -3.25079e-16
vn 0.486275 0.232698 0.842252
vn -0.486275 0.232698 0.842252
vn -0.972549 0.232698 2.27555e-16
vn -0.486275 0.232698 -0.842252
vn 0.486275 0.232698 -0.842252
vn 0.972549 -0.232698 -2.92571e-16
vn 0.486275 -0.232698 0.842252
vn -0.486275 -0.232698 0.842252
vn -0.972549 -0.232698 2.92571e-16
vn -0.486275 -0.232698 -0.842252
vn 0.486275 -0.232698 -0.842252
vn -4.19100e-16 1.00000 -9.31333e-17
vn -6.09201e-16 -1.00000 1.86267e-16
g cylinder1_sep5_default
usemtl default
f 15//15 20//20 27//27
f 16//16 15//15 27//27
f 17//17 16//16 27//27
f 18//18 17//17 27//27
f 19//19 18//18 27//27
f 20//20 19//19 27//27
f 21//21 15//15 16//16 22//22
f 21//21 22//22 28//28
f 22//22 16//16 17//17 23//23
f 22//22 23//23 28//28
f 23//23 17//17 18//18 24//24
f 23//23 24//24 28//28
f 24//24 18//18 19//19 25//25
f 24//24 25//25 28//28
f 25//25 19//19 20//20 26//26
f 25//25 26//26 28//28
f 26//26 20//20 15//15 21//21
f 26//26 21//21 28//28
o cylinder1_sep5
#14 vertices, 18 faces
v -1.23205 -1.86603 0.00000e+0
v -1.48205 -1.43301 0.866025
v -1.98205 -0.566987 0.866025
v -2.23205 -0.133975 1.22461e-16
v -1.98205 -0.566987 -0.866025
v -1.48205 -1.43301 -0.866025
v -4.69615 -3.86603 0.00000e+0
v -4.94615 -3.43301 0.866025
v -5.44615 -2.56699 0.866025
v -5.69615 -2.13397 1.22461e-16
v -5.44615 -2.56699 -0.866025
v -4.94615 -3.43301 -0.866025
v -1.23248e-16 -2.11755e-17 1.90639e-18
v -6.92820 -4.00000 -2.22045e-16
vn 0.687797 -0.725903 -2.27555e-16
vn 0.444660 -0.304777 0.842252
vn -4.16150e-2 0.537475 0.842252
vn -0.284752 0.958601 1.30032e-16
vn -4.16150e-2 0.537475 -0.842252
vn 0.444660 -0.304777 -0.842252
vn 0.284752 -0.958601 -4.22603e-16
vn 4.16150e-2 -0.537475 0.842252
vn -0.444660 0.304777 0.842252
vn -0.687797 0.725903 1.62539e-17
vn -0.444660 0.304777 -0.842252
vn 4.16150e-2 -0.537475 -0.842252
vn 0.866025 0.500000 -9.31333e-17
vn -0.866025 -0.500000 -5.12233e-16
g cylinder1_sep5_default
usemtl default
f 29//29 34//34 41//41
f 30//30 29//29 41//41
f 31//31 30//30 41//41
f 32//32 31//31 41//41
f 33//33 32//32 41//41
f 34//34 33//33 41//41
f 35//35 29//29 30//30 36//36
f 35//35 36//36 42//42
f 36//36 30//30 31//31 37//37
f 36//36 37//37 42//42
f 37//37 31//31 32//32 38//38
f 37//37 38//38 42//42
f 38//38 32//32 33//33 39//39
f 38//38 39//39 42//42
f 39//39 33//33 34//34 40//40
f 39//39 40//40 42//42
f 40//40 34//34 29//29 35//35
f 40//40 35//35 42//42
o cylinder1_copy4
#14 vertices, 18 faces
v 5.69615 2.13397 0.00000e+0
v 5.44615 2.56699 0.866025
v 4.94615 3.43301 0.866025
v 4.69615 3.86603 1.22461e-16
v 4.94615 3.43301 -0.866025
v 5.44615 2.56699 -0.866025
v 2.23205 0.133975 0.00000e+0
v 1.98205 0.566987 0.866025
v 1.48205 1.43301 0.866025
v 1.23205 1.86603 1.22461e-16
v 1.48205 1.43301 -0.866025
v 1.98205 0.566987 -0.866025
v 6.92820 4.00000 1.90639e-18
v -1.32500e-16 -5.15079e-18 -2.22045e-16
vn 0.687797 -0.725903 -9.75237e-17
vn 0.444660 -0.304777 0.842252
vn -4.16150e-2 0.537475 0.842252
vn -0.284752 0.958601 2.60063e-16
vn -4.16150e-2 0.537475 -0.842252
vn 0.444660 -0.304777 -0.842252
vn 0.284752 -0.958601 -2.27555e-16
vn 4.16150e-2 -0.537475 0.842252
vn -0.444660 0.304777 0.842252
vn -0.687797 0.725903 2.27555e-16
vn -0.444660 0.304777 -0.842252
vn 4.16150e-2 -0.537475 -0.842252
vn 0.866025 0.500000 1.62983e-16
vn -0.866025 -0.500000 -9.31333e-17
g cylinder1_copy4_default
usemtl default
f 43//43 48//48 55//55
f 44//44 43//43 55//55
f 45//45 44//44 55//55
f 46//46 45//45 55//55
f 47//47 46//46 55//55
f 48//48 47//47 55//55
f 49//49 43//43 44//44 50//50
f 49//49 50//50 56//56
f 50//50 44//44 45//45 51//51
f 50//50 51//51 56//56
f 51//51 45//45 46//46 52//52
f 51//51 52//52 56//56
f 52//52 46//46 47//47 53//53
f 52//52 53//53 56//56
f 53//53 47//47 48//48 54//54
f 53//53 54//54 56//56
f 54//54 48//48 43//43 49//49
f 54//54 49//49 56//56
o cylinder1_copy3
#14 vertices, 18 faces
v -4.69615 3.86603 0.00000e+0
v -4.94615 3.43301 0.866025
v -5.44615 2.56699 0.866025
v -5.69615 2.13397 1.22461e-16
v -5.44615 2.56699 -0.866025
v -4.94615 3.43301 -0.866025
v -1.23205 1.86603 0.00000e+0
v -1.48205 1.43301 0.866025
v -1.98205 0.566987 0.866025
v -2.23205 0.133975 1.22461e-16
v -1.98205 0.566987 -0.866025
v -1.48205 1.43301 -0.866025
v -6.92820 4.00000 1.90639e-18
v -1.32500e-16 5.15079e-18 -2.22045e-16
vn 0.284752 0.958601 -1.78793e-16
vn 4.16150e-2 0.537475 0.842252
vn -0.444660 -0.304777 0.842252
vn -0.687797 -0.725903 1.62539e-16
vn -0.444660 -0.304777 -0.842252
vn 4.16150e-2 0.537475 -0.842252
vn 0.687797 0.725903 -1.95047e-16
vn 0.444660 0.304777 0.842252
vn -4.16150e-2 -0.537475 0.842252
vn -0.284752 -0.958601 1.46286e-16
vn -4.16150e-2 -0.537475 -0.842252
vn 0.444660 0.304777 -0.842252
vn -0.866025 0.500000 -6.98500e-17
vn 0.866025 -0.500000 -1.86267e-16
g cylinder1_copy3_default
usemtl default
f 57//57 62//62 69//69
f 58//58 57//57 69//69
f 59//59 58//58 69//69
f 60//60 59//59 69//69
f 61//61 60//60 69//69
f 62//62 61//61 69//69
f 63//63 57//57 58//58 64//64
f 63//63 64//64 70//70
f 64//64 58//58 59//59 65//65
f 64//64 65//65 70//70
f 65//65 59//59 60//60 66//66
f 65//65 66//66 70//70
f 66//66 60//60 61//61 67//67
f 66//66 67//67 70//70
f 67//67 61//61 62//62 68//68
f 67//67 68//68 70//70
f 68//68 62//62 57//57 63//63
f 68//68 63//63 70//70
o cylinder1
#14 vertices, 18 faces
v 1.00000 6.00000 0.00000e+0
v 0.500000 6.00000 0.866025
v -0.500000 6.00000 0.866025
v -1.00000 6.00000 1.22461e-16
v -0.500000 6.00000 -0.866025
v 0.500000 6.00000 -0.866025
v 1.00000 2.00000 0.00000e+0
v 0.500000 2.00000 0.866025
v -0.500000 2.00000 0.866025
v -1.00000 2.00000 1.22461e-16
v -0.500000 2.00000 -0.866025
v 0.500000 2.00000 -0.866025
v -1.11022e-16 8.00000 1.90639e-18
v -1.29526e-16 0.00000e+0 -2.22045e-16
vn 0.972549 0.232698 -3.08825e-16
vn 0.486275 0.232698 0.842252
vn -0.486275 0.232698 0.842252
vn -0.972549 0.232698 1.95047e-16
vn -0.486275 0.232698 -0.842252
vn 0.486275 0.232698 -0.842252
vn 0.972549 -0.232698 -2.92571e-16
vn 0.486275 -0.232698 0.842252
vn -0.486275 -0.232698 0.842252
vn -0.972549 -0.232698 2.27555e-16
vn -0.486275 -0.232698 -0.842252
vn 0.486275 -0.232698 -0.842252
vn -1.39700e-16 1.00000 -6.98500e-17
vn -1.90101e-16 -1.00000 -9.31333e-17
g cylinder1_default
usemtl default
f 71//71 76//76 83//83
f 72//72 71//71 83//83
f 73//73 72//72 83//83
f 74//74 73//73 83//83
f 75//75 74//74 83//83
f 76//76 75//75 83//83
f 77//77 71//71 72//72 78//78
f 77//77 78//78 84//84
f 78//78 72//72 73//73 79//79
f 78//78 79//79 84//84
f 79//79 73//73 74//74 80//80
f 79//79 80//80 84//84
f 80//80 74//74 75//75 81//81
f 80//80 81//81 84//84
f 81//81 75//75 76//76 82//82
f 81//81 82//82 84//84
f 82//82 76//76 71//71 77//77
f 82//82 77//77 84//84
