# Exported from Wings 3D 0.98.29b
mtllib cube_tri.mtl
o cube1
#8 vertices, 12 faces
v 0.0000000e+0 0.0000000e+0 1.00000000
v 0.0000000e+0 1.00000000 1.00000000
v 1.00000000 1.00000000 1.00000000
v 1.00000000 0.0000000e+0 1.00000000
v 0.0000000e+0 0.0000000e+0 0.0000000e+0
v 0.0000000e+0 1.00000000 0.0000000e+0
v 1.00000000 1.00000000 0.0000000e+0
v 1.00000000 0.0000000e+0 0.0000000e+0
vn -0.57735027 -0.57735027 0.57735027
vn -0.57735027 0.57735027 0.57735027
vn 0.57735027 0.57735027 0.57735027
vn 0.57735027 -0.57735027 0.57735027
vn -0.57735027 -0.57735027 -0.57735027
vn -0.57735027 0.57735027 -0.57735027
vn 0.57735027 0.57735027 -0.57735027
vn 0.57735027 -0.57735027 -0.57735027
g cube1_default2
usemtl default2
f 1//1 3//3 2//2
f 1//1 6//6 5//5
f 1//1 8//8 4//4
f 2//2 6//6 1//1
f 3//3 6//6 2//2
f 3//3 8//8 7//7
f 4//4 3//3 1//1
f 4//4 8//8 3//3
f 5//5 8//8 1//1
f 6//6 8//8 5//5
f 7//7 6//6 3//3
f 7//7 8//8 6//6
